<svg width="16" height="12" viewBox="0 0 16 12" fill="none" xmlns="http://www.w3.org/2000/svg">
<path fill-rule="evenodd" clip-rule="evenodd" d="M8.32997 2.60802C10.5459 2.60811 12.677 3.45955 14.283 4.98635C14.4039 5.10422 14.5972 5.10274 14.7163 4.98302L15.8723 3.81635C15.9326 3.75563 15.9662 3.67338 15.9657 3.58779C15.9652 3.50221 15.9306 3.42036 15.8696 3.36035C11.6545 -0.679198 5.00473 -0.679198 0.789632 3.36035C0.728573 3.42032 0.693929 3.50215 0.693366 3.58773C0.692803 3.67331 0.726368 3.75558 0.786632 3.81635L1.94297 4.98302C2.06199 5.10292 2.25544 5.10441 2.3763 4.98635C3.98245 3.45945 6.11385 2.60801 8.32997 2.60802ZM8.32997 6.40368C9.54745 6.40361 10.7215 6.85614 11.624 7.67335C11.746 7.78933 11.9383 7.78682 12.0573 7.66768L13.212 6.50102C13.2728 6.43982 13.3065 6.3568 13.3056 6.27054C13.3048 6.18427 13.2693 6.10196 13.2073 6.04202C10.4591 3.48563 6.20316 3.48563 3.45497 6.04202C3.39289 6.10196 3.35747 6.18432 3.35665 6.27061C3.35584 6.3569 3.3897 6.43991 3.45063 6.50102L4.60497 7.66768C4.72395 7.78682 4.91624 7.78933 5.0383 7.67335C5.94017 6.85668 7.11328 6.40419 8.32997 6.40368ZM10.643 8.9575C10.6447 9.04401 10.6107 9.12741 10.549 9.18802L8.55163 11.2037C8.49308 11.2629 8.41326 11.2963 8.32997 11.2963C8.24667 11.2963 8.16685 11.2629 8.1083 11.2037L6.11063 9.18802C6.04892 9.12737 6.01497 9.04394 6.0168 8.95743C6.01863 8.87092 6.05608 8.789 6.1203 8.73102C7.39587 7.65213 9.26406 7.65213 10.5396 8.73102C10.6038 8.78905 10.6412 8.87099 10.643 8.9575Z" fill="black"/>
</svg>
